{"title":"A Football Life S03E01 LaDainian Tomlinson (1280x720) [Phr0stY].","uid":8912624,"size":1626725856,"categoryP":"video","categoryS":"hd___tv_shows","magnet":"?xt=urn:btih:9cd17d4a0b260e129eea9a491ab352083b540ddf&amp;dn=A+Football+Life+S03E01+LaDainian+Tomlinson+%281280x720%29+%5BPhr0stY%5D.&amp;tr=udp%3A%2F%2Ftracker.openbittorrent.com%3A80&amp;tr=udp%3A%2F%2Fopen.demonii.com%3A1337&amp;tr=udp%3A%2F%2Ftracker.coppersurfer.tk%3A6969&amp;tr=udp%3A%2F%2Fexodus.desync.com%3A6969","seeders":1,"leechers":1,"uploader":"frostyon420","files":-1,"time":1379061666,"description":"Please Seed!!!!!!\n\n &lt;a href=&quot;\nhttps://forum.suprbay.org/showthread.php?tid=154520&quot; rel=&quot;nofollow&quot; target=&quot;_NEW&quot;&gt;\nhttps://forum.suprbay.org/showthread.php?tid=154520&lt;/a&gt;\n\n\nComplete name                            : D:TV showsNFLA Football LifeA Football Life Season 3 (1280x720) [Phr0stY]A Football Life S03E01 LaDainian Tomlinson (1280x720) [Phr0stY].mp4\nFormat                                   : MPEG-4\nFormat profile                           : Base Media\nCodec ID                                 : isom\nFile size                                : 1.52 GiB\nDuration                                 : 49mn 0s\nOverall bit rate mode                    : Variable\nOverall bit rate                         : 4 426 Kbps\nEncoded date                             : UTC 2013-09-03 02:10:16\nTagged date                              : UTC 2013-09-03 02:10:16\n\nVideo\nID                                       : 1\nFormat                                   : AVC\nFormat/Info                              : Advanced Video Codec\nFormat profile                           : &lt;a class=&quot;__cf_email__&quot; href=&quot;/cdn-cgi/l/email-protection&quot; data-cfemail=&quot;cb86aaa2a58b87ffe5fb&quot;&gt;[email&amp;#160;protected]&lt;/a&gt;&lt;script cf-hash='f9e31' type=&quot;text/javascript&quot;&gt;\n/* &lt;![CDATA[ */!function(){try{var t=&quot;currentScript&quot;in document?document.currentScript:function(){for(var t=document.getElementsByTagName(&quot;script&quot;),e=t.length;e--;)if(t[e].getAttribute(&quot;cf-hash&quot;))return t[e]}();if(t&amp;&amp;t.previousSibling){var e,r,n,i,c=t.previousSibling,a=c.getAttribute(&quot;data-cfemail&quot;);if(a){for(e=&quot;&quot;,r=parseInt(a.substr(0,2),16),n=2;a.length-n;n+=2)i=parseInt(a.substr(n,2),16)^r,e+=String.fromCharCode(i);e=document.createTextNode(e),c.parentNode.replaceChild(e,c)}}}catch(u){}}();/* ]]&gt; */&lt;/script&gt;\nFormat settings, CABAC                   : Yes\nFormat settings, ReFrames                : 3 frames\nCodec ID                                 : avc1\nCodec ID/Info                            : Advanced Video Coding\nDuration                                 : 49mn 0s\nBit rate                                 : 4 293 Kbps\nWidth                                    : 1 280 pixels\nHeight                                   : 720 pixels\nDisplay aspect ratio                     : 16:9\nFrame rate mode                          : Variable\nFrame rate                               : 29.970 fps\nMinimum frame rate                       : 29.412 fps\nMaximum frame rate                       : 30.303 fps\nColor space                              : YUV\nChroma subsampling                       : 4:2:0\nBit depth                                : 8 bits\nScan type                                : Progressive\nBits/(Pixel*Frame)                       : 0.155\nStream size                              : 1.47 GiB (97%)\nTitle                                    : NeuLion MP4 - Video\nEncoded date                             : UTC 2013-09-03 02:10:17\nTagged date                              : UTC 2013-09-03 02:36:50\n\nAudio\nID                                       : 2\nFormat                                   : AAC\nFormat/Info                              : Advanced Audio Codec\nFormat profile                           : LC\nCodec ID                                 : 40\nDuration                                 : 49mn 0s\nBit rate mode                            : Variable\nBit rate                                 : 126 Kbps\nChannel count                            : 2 channels\nChannel positions                        : Front: L R\nSampling rate                            : 44.1 KHz\nCompression mode                         : Lossy\nStream size                              : 44.0 MiB (3%)\nTitle                                    : NeuLion MP4 - Audio\nEncoded date                             : UTC 2013-09-03 02:10:17\nTagged date                              : UTC 2013-09-03 02:36:50\n\nText\nID                                       : 1-CC1\nFormat                                   : EIA-608\nMuxing mode                              : SCTE 128 / DTVCC Transport\nMuxing mode, more info                   : Muxed in Video #1\nDuration                                 : 49mn 0s\nBit rate mode                            : Constant\nStream size                              : 0.00 Byte (0%)\nEncoded stream size                      : 0.00 Byte (0%)\n\n","torrent":{"xt":"urn:btih:9cd17d4a0b260e129eea9a491ab352083b540ddf","amp;dn":"A+Football+Life+S03E01+LaDainian+Tomlinson+%281280x720%29+%5BPhr0stY%5D.","amp;tr":["udp%3A%2F%2Ftracker.openbittorrent.com%3A80","udp%3A%2F%2Fopen.demonii.com%3A1337","udp%3A%2F%2Ftracker.coppersurfer.tk%3A6969","udp%3A%2F%2Fexodus.desync.com%3A6969"],"infoHash":"9cd17d4a0b260e129eea9a491ab352083b540ddf","infoHashBuffer":{"type":"Buffer","data":[156,209,125,74,11,38,14,18,158,234,154,73,26,179,82,8,59,84,13,223]},"announce":[],"urlList":[]}}